# xmcd CD database file
# Copyright (C) 1993-1998 Ti Kan
#
# Track frame offsets:
#	182
#	13250
#	24587
#	38690
#	51162
#	64435
#	78810
#	90530
#	102705
#	117210
#	130097
#	143122
#
# Disc length: 2101 seconds
#
# Revision: 1
# Processed by: cddbd v1.4b41PL1 Copyright (c) Steve Scherf et al.
# Submitted via: CDValet v3.31 - Copyright (c) 1997 Greg Leichner
#
DISCID=9f08330c
DTITLE=Count Basie and His Orchestra - Vocals Jimmy Rushing
DYEAR=1900
DGENRE=
TTITLE0=I May be Wrong
TTITLE1=Boo Hoo
TTITLE2=Good Morning Blues
TTITLE3=Exactly Like You
TTITLE4=Sent for You Yesterday and Here You Come Today
TTITLE5=Don't You Miss Your Baby
TTITLE6=Georgianna
TTITLE7=Do You Wanna Jump Children
TTITLE8=The Blues I Like to Hear
TTITLE9=Now Will You Be Good
TTITLE10=Mama Don't Want No Peas an' Rice an' Coconut Oil
TTITLE11=You Can Depend On Me
EXTD=
EXTT0=
EXTT1=
EXTT2=
EXTT3=
EXTT4=
EXTT5=
EXTT6=
EXTT7=
EXTT8=
EXTT9=
EXTT10=
EXTT11=
PLAYORDER=
